<svg width="502" height="194" viewBox="0 0 502 194" fill="none" xmlns="http://www.w3.org/2000/svg">
<path d="M425.983 70.2839H402.796L386.736 123.261H402.036L405.552 110.603H422.562V110.697L426.172 123.355H441.853L425.983 70.2841V70.2839ZM408.118 101.976L414.105 80.5981L420.092 101.976H408.118Z" fill="black"/>
<path d="M210.465 70.3773H162.856V83.4105H184.902L160.766 123.354H210.751V110.321H188.228L210.465 70.3773Z" fill="black"/>
<path d="M376.952 101.414C379.327 100.101 381.322 98.2261 382.653 95.7882C384.078 93.0692 384.838 90.0686 384.743 86.9744C384.649 83.8802 383.794 80.9734 382.272 78.2543C380.562 75.6289 378.091 73.566 375.241 72.2534C372.2 70.8469 368.588 70.0968 364.502 70.0968H334.379V123.355H349.679V100.195L365.073 123.543H382.843L368.969 103.477L369.824 103.383C372.295 103.289 374.765 102.633 376.952 101.414V101.414ZM367.163 93.6316C365.927 94.8506 364.313 95.6007 362.507 95.6007H349.679V82.5675H362.507C364.218 82.5675 365.927 83.2238 367.163 84.4428C368.399 85.6617 369.064 87.3495 369.064 89.0373C369.064 90.7251 368.399 92.4128 367.163 93.6316Z" fill="black"/>
<path d="M299.408 68.6895C282.968 68.6895 270.044 81.0664 270.044 96.8188C270.044 112.571 282.968 124.948 299.408 124.948C315.847 124.948 328.676 112.571 328.676 96.8188C328.771 81.0665 315.847 68.6895 299.408 68.6895ZM309.67 107.039C306.915 109.571 303.209 111.071 299.408 111.071C296.557 111.071 293.801 110.227 291.425 108.727C289.05 107.133 287.244 104.976 286.103 102.351C284.964 99.7255 284.678 96.9126 285.248 94.1934C285.819 91.4743 287.149 88.9426 289.145 86.8798C291.14 84.9107 293.707 83.5043 296.557 83.0354C299.313 82.4728 302.258 82.7541 304.919 83.8793C307.58 84.9107 309.765 86.786 311.382 89.1301C312.997 91.4743 313.851 94.1934 313.851 97.0064C313.851 100.757 312.331 104.32 309.67 107.039V107.039Z" fill="black"/>
<path d="M249.042 103.101C249.042 105.258 248.187 107.414 246.572 108.915C244.956 110.509 242.865 111.353 240.68 111.353C238.495 111.353 236.309 110.509 234.788 108.915C233.268 107.321 232.318 105.258 232.318 103.101V70.3773H216.923V101.601C216.923 107.789 219.394 113.697 223.859 118.103C228.326 122.51 234.313 124.948 240.68 124.948C246.951 124.948 253.033 122.51 257.5 118.103C261.965 113.697 264.436 107.789 264.436 101.601V70.3773H249.042V103.101H249.042Z" fill="black"/>
<path d="M437.841 71.6619H437.875L438.754 74.7985H439.633L440.495 71.6619H440.529V74.7985H441.718V70.3185H440.047L439.272 73.3162H439.236L438.461 70.3185H436.721V74.7985H437.841V71.6619Z" fill="black"/>
<path d="M433.498 74.7985H434.705V71.3518H436.238V70.3185H431.999V71.3518H433.498V74.7985Z" fill="black"/>
<path d="M126.936 136.2H79.6127C77.142 136.2 75.0514 134.7 74.1961 132.449C73.3409 130.199 74.1011 127.667 76.0017 126.167L86.5497 117.634H66.7841C64.3134 117.634 62.2228 116.134 61.3674 113.884C60.5121 111.633 61.1774 109.196 63.0779 107.602L83.5088 90.8177C85.2192 89.4112 87.6901 89.6925 89.1155 91.2865C90.5409 92.9743 90.2557 95.4122 88.6403 96.8186L72.8658 109.852H96.3375L128.267 84.1604H74.2912C70.7751 84.1604 67.4491 82.7539 64.8834 80.316C62.4127 77.8781 61.0822 74.5964 61.0822 71.1272C61.0822 67.658 62.4127 64.3761 64.9785 61.8444C67.4491 59.4066 70.7751 58 74.2912 58H120.284C122.755 58 124.846 59.5003 125.701 61.7505C126.556 64.001 125.796 66.4387 123.895 68.0328L113.632 76.3778H134.349C136.819 76.3778 138.91 77.878 139.765 80.1284C140.62 82.3788 139.86 84.9104 137.96 86.4107L108.786 109.852H126.936C130.452 109.852 133.778 111.258 136.249 113.696C138.72 116.134 140.145 119.416 140.145 122.979V123.166C140.145 126.636 138.815 129.917 136.249 132.449C133.778 134.887 130.452 136.2 126.936 136.2V136.2ZM85.7895 128.417H126.936C128.362 128.417 129.692 127.855 130.738 126.917C131.783 125.886 132.258 124.573 132.258 123.167V122.979C132.258 121.573 131.688 120.26 130.738 119.228C129.692 118.197 128.362 117.728 126.936 117.728H99.0933L85.7895 128.417V128.417ZM74.2912 65.7825C72.8658 65.7825 71.5353 66.3452 70.4901 67.2828C69.4448 68.3143 68.9697 69.6269 68.9697 71.0334C68.9697 72.4398 69.5398 73.7526 70.4901 74.7839C71.5353 75.8154 72.8658 76.2842 74.2912 76.2842H101.184L114.203 65.7825H74.2912Z" fill="#00D2B9"/>
</svg>
